<?xml version="1.0" standalone="no"?><!DOCTYPE svg PUBLIC "-//W3C//DTD SVG 1.1//EN"
        "http://www.w3.org/Graphics/SVG/1.1/DTD/svg11.dtd">
<svg t="1675347655150" class="icon" viewBox="0 0 1024 1024" version="1.1" xmlns="http://www.w3.org/2000/svg" p-id="1958"
     xmlns:xlink="http://www.w3.org/1999/xlink" width="200" height="200">
    <path d="M848.215 311.184h-20.02c-15.625-46.55-36.132-80.567-61.523-102.051-25.39-21.485-57.617-32.227-96.68-32.227h-104.98c-28.972 0-48.015 3.58-57.13 10.742-9.114 7.162-13.671 25.88-13.671 56.153v443.36c0 34.83 7.487 58.674 22.46 71.532 14.975 12.858 42.807 19.287 83.497 19.287V798h-321.29v-20.02c41.017-0.976 68.279-6.591 81.788-16.845 13.51-10.254 20.264-34.912 20.264-73.975v-429.2c0-39.713-6.673-66.324-20.02-79.833-13.346-13.51-39.062-20.264-77.148-20.264h-4.883v-20.02h547.363l21.973 173.34z"
          fill="#333333" p-id="1959"></path>
</svg>