<?xml version="1.0" encoding="utf-8"?>
<!-- Generator: Adobe Illustrator 27.0.0, SVG Export Plug-In . SVG Version: 6.00 Build 0)  -->
<svg version="1.1" id="图层_1" xmlns="http://www.w3.org/2000/svg" xmlns:xlink="http://www.w3.org/1999/xlink" x="0px" y="0px"
	 viewBox="0 0 1920 1080" style="enable-background:new 0 0 1920 1080;" xml:space="preserve">


<path class="st0" d="M409.5,522.4c0-15.3,13.2-27.3,26.7-32.2c24.1-8.8,22.5-1.7,42-22c9.7-11,18.9-22.4,28-33.9
	c6.7-8.5,15.3-11.3,25.6-9.6c10.5,1.8,16.5,9.6,16.9,21.9c0.3,9.4-2.1,18.6-1.6,28c0.5,8.7,1.8,10.4,10.8,10.5
	c17.6,0.1,35.3,0.8,52.8-0.2c23.2-1.3,33.4,17.8,26.4,36.7c-10.2,27.7-17.7,56.4-26.6,84.6c-6.9,22-25,33.1-48.1,33.1H458.1
	c-51.2,0-48.6-47.7-48.6-58.3L409.5,522.4z"/>

<path class="st1" d="M959,457.4c13.3,0,26.6,0,39.8,0c3.4,0,6.9,0.2,9.8,2.1c3.2,2,4.1,5.5,3.4,8.9c-0.9,4.3-4.1,6.4-8.5,6.5
	c-8.9,0.1-17.9,0.2-26.8,0c-4.8-0.1-8.9,0.2-8.7,6.5c0.2,5.5-1.9,11.6,7,12.9c23.8,3.7,38.9,17.8,46.3,40.3c3,9,3,18.5,2.5,27.9
	c-0.3,5.4-3.1,9.1-9.2,8.7c-6.1-0.4-8.4-3.9-8.2-9.6c0.4-12.2-0.3-24-8-34.4c-5.7-7.7-13-12.6-22-15.5c-5.6-1.8-8-0.5-7.9,5.8
	c0.2,25,0.1,50.1,0.1,75.1c0,2.9,0.3,5.8-1.4,8.4c-2.4,3.9-6,4.7-10.1,3.9c-4.4-0.9-6.5-4.2-6.6-8.4c-0.3-7.2-0.1-14.4-0.1-21.7
	c0-19.3-0.1-38.5,0-57.8c0-5-1.1-6.9-6.7-5.5c-17.6,4.3-30.3,20-30.9,38.9c-0.1,4.3,0.2,8.7-0.1,13c-0.3,4.7-3.1,7.5-7.9,7.7
	c-5.1,0.2-8.8-2.1-9.3-7.1c-2.1-24.2,3.4-45.3,24.4-60.4c7.7-5.5,16.3-8.3,25.3-10.1c9.1-1.8,4.4-8.7,5.2-13.4
	c0.9-5.4-3.3-5.4-7.1-5.4c-8.9,0-17.9,0-26.8,0c-5.6,0-10.2-1.5-10.7-8c-0.4-5.1,4.1-9.2,10.6-9.4
	C930.5,457.2,944.8,457.4,959,457.4C959,457.4,959,457.4,959,457.4z"/>
<path class="st0" d="M1320.7,633.2c2-12.3,3.9-26.8,6.8-41.2c3.3-16.6,0.9-30.7-12.3-42.7c-10.5-9.6-19.9-20.3-29.8-30.5
	c-5.4-5.5-8.1-11.9-5.6-19.6c2.5-7.7,8.2-11.5,16-12.7c14.8-2.3,29.5-4.7,44.2-7c12.4-2,21.3-8.7,26.7-19.9
	c6.2-13,12.1-26.2,18-39.4c3.5-7.8,8.4-13.2,17.7-13.7c9.4-0.5,14.6,4.7,18.3,12.5c6.3,13.3,12.7,26.5,19.1,39.7
	c5.7,11.9,14.8,19.1,28.2,20.9c14.3,2,28.5,4.6,42.8,6.8c7.9,1.2,13.4,5.1,16.4,12.5c3.1,7.8-0.1,14.2-5.3,19.7
	c-10.6,11.2-20.9,22.7-32.2,33.2c-11.3,10.5-12.8,23.2-10.6,37c2.2,13.7,5.2,27.4,7.7,41.1c1.9,10.5-1,18.2-8.6,22.6
	c-5.4,3.2-10.7,3.6-16.5,0.5c-13.3-7.3-26.9-14.1-40.2-21.5c-12.3-6.9-24.2-6.5-36.3,0.5c-12.3,7.1-24.8,13.9-37.4,20.5
	C1334,659.9,1320.5,651.2,1320.7,633.2z"/>
</svg>
