<?xml version="1.0" standalone="no"?><!DOCTYPE svg PUBLIC "-//W3C//DTD SVG 1.1//EN" "http://www.w3.org/Graphics/SVG/1.1/DTD/svg11.dtd"><svg t="1676121995266" class="icon" viewBox="0 0 1024 1024" version="1.1" xmlns="http://www.w3.org/2000/svg" p-id="1417" xmlns:xlink="http://www.w3.org/1999/xlink" width="200" height="200"><path d="M575.4 64h-74.5v633.5C385 644.8 249.3 715.3 226.8 820c-7.3 34.1 7.9 70.9 21.9 87.8 79.3 94.6 252.2 50.5 331.6-51.3 35.2-45.2 32.3-84.6 32.3-181.3V287.5c48.8 36.3 103.9 70.1 123.7 135 12.2 40.3-4.1 107.3-17 141.5-3.9 10.3-14.7 18.9-9.7 29.2 34.2 25.4 51.1-28.6 60.9-51.2 10.6-24.5 20.8-54.7 24.4-75.6C833.2 242.8 595.5 234.3 575.4 64z" p-id="1418"></path></svg>